<mxfile host="app.diagrams.net" modified="2024-01-16T03:43:29.227Z" agent="Mozilla/5.0 (Macintosh; Intel Mac OS X 10_15_7) AppleWebKit/537.36 (KHTML, like Gecko) Chrome/120.0.0.0 Safari/537.36" etag="S_RpgbTEzAJZ0E7dGh-8" version="22.1.18" type="github">
  <diagram name="Page-1" id="v1nX06M-DNy9kdIdkmi6">
    <mxGraphModel dx="1242" dy="786" grid="1" gridSize="10" guides="1" tooltips="1" connect="1" arrows="1" fold="1" page="1" pageScale="1" pageWidth="850" pageHeight="1100" math="0" shadow="0">
      <root>
        <mxCell id="0" />
        <mxCell id="1" parent="0" />
        <mxCell id="pD_aU4o5Cr0B8d0acllT-1" value="Batch Job Triggers" style="rounded=1;whiteSpace=wrap;html=1;" vertex="1" parent="1">
          <mxGeometry x="50" y="250" width="120" height="60" as="geometry" />
        </mxCell>
        <mxCell id="pD_aU4o5Cr0B8d0acllT-2" value="" style="endArrow=classic;html=1;rounded=0;" edge="1" parent="1" target="pD_aU4o5Cr0B8d0acllT-3">
          <mxGeometry width="50" height="50" relative="1" as="geometry">
            <mxPoint x="170" y="279.5" as="sourcePoint" />
            <mxPoint x="240" y="280" as="targetPoint" />
          </mxGeometry>
        </mxCell>
        <mxCell id="pD_aU4o5Cr0B8d0acllT-3" value="Config&amp;nbsp; &amp;nbsp; Enabled ?&amp;nbsp;" style="rhombus;whiteSpace=wrap;html=1;" vertex="1" parent="1">
          <mxGeometry x="200" y="240" width="80" height="80" as="geometry" />
        </mxCell>
        <mxCell id="pD_aU4o5Cr0B8d0acllT-4" value="" style="endArrow=classic;html=1;rounded=0;" edge="1" parent="1">
          <mxGeometry width="50" height="50" relative="1" as="geometry">
            <mxPoint x="280" y="280" as="sourcePoint" />
            <mxPoint x="360" y="280" as="targetPoint" />
          </mxGeometry>
        </mxCell>
        <mxCell id="pD_aU4o5Cr0B8d0acllT-6" value="Yes" style="text;html=1;align=center;verticalAlign=middle;resizable=0;points=[];autosize=1;strokeColor=none;fillColor=none;" vertex="1" parent="1">
          <mxGeometry x="300" y="258" width="40" height="30" as="geometry" />
        </mxCell>
        <mxCell id="pD_aU4o5Cr0B8d0acllT-7" value="Check if STALE_DEFINTION status present" style="rounded=1;whiteSpace=wrap;html=1;" vertex="1" parent="1">
          <mxGeometry x="360" y="250" width="120" height="60" as="geometry" />
        </mxCell>
        <mxCell id="pD_aU4o5Cr0B8d0acllT-8" value="Fetch the eligible definitions to be updated and set DMN as null" style="rounded=1;whiteSpace=wrap;html=1;" vertex="1" parent="1">
          <mxGeometry x="540" y="250" width="120" height="60" as="geometry" />
        </mxCell>
        <mxCell id="pD_aU4o5Cr0B8d0acllT-9" value="" style="endArrow=classic;html=1;rounded=0;" edge="1" parent="1">
          <mxGeometry width="50" height="50" relative="1" as="geometry">
            <mxPoint x="480" y="280" as="sourcePoint" />
            <mxPoint x="540" y="280" as="targetPoint" />
          </mxGeometry>
        </mxCell>
        <mxCell id="pD_aU4o5Cr0B8d0acllT-10" value="Delete the process from the table that have ended." style="rounded=1;whiteSpace=wrap;html=1;" vertex="1" parent="1">
          <mxGeometry x="540" y="380" width="120" height="60" as="geometry" />
        </mxCell>
        <mxCell id="pD_aU4o5Cr0B8d0acllT-11" value="" style="endArrow=classic;html=1;rounded=0;" edge="1" parent="1">
          <mxGeometry width="50" height="50" relative="1" as="geometry">
            <mxPoint x="600.76" y="310" as="sourcePoint" />
            <mxPoint x="599.24" y="380" as="targetPoint" />
          </mxGeometry>
        </mxCell>
        <mxCell id="pD_aU4o5Cr0B8d0acllT-12" value="End" style="rounded=1;whiteSpace=wrap;html=1;" vertex="1" parent="1">
          <mxGeometry x="540" y="500" width="120" height="60" as="geometry" />
        </mxCell>
        <mxCell id="pD_aU4o5Cr0B8d0acllT-13" value="" style="endArrow=classic;html=1;rounded=0;exitX=0.5;exitY=1;exitDx=0;exitDy=0;" edge="1" parent="1" source="pD_aU4o5Cr0B8d0acllT-10">
          <mxGeometry width="50" height="50" relative="1" as="geometry">
            <mxPoint x="600" y="470" as="sourcePoint" />
            <mxPoint x="600" y="500" as="targetPoint" />
          </mxGeometry>
        </mxCell>
      </root>
    </mxGraphModel>
  </diagram>
</mxfile>
